<?xml version="1.0" encoding="UTF-8"?>
<svg id="Réteg_1" data-name="Réteg 1" xmlns="http://www.w3.org/2000/svg" viewBox="0 0 961.54 961.54">
  <defs>
    <style>
      .cls-1 {
        fill: #0f2335;
      }

      .cls-1, .cls-2, .cls-3, .cls-4 {
        stroke-width: 0px;
      }

      .cls-2 {
        fill: #bc956c;
      }

      .cls-3 {
        fill: #feeeca;
      }

      .cls-4 {
        fill: #feeecb;
      }
    </style>
  </defs>
  <circle class="cls-1" cx="480.77" cy="480.77" r="480.77"/>
  <g>
    <g>
      <g>
        <g>
          <path class="cls-2" d="M231.15,344.65c1.79,10.35,3.6,20.57,5.04,30.47.33,3.32,3.26,6.68,3.16,10.09-.83,3.85-3.78,5.63-7.47,8.44-3.06,2-6.37,4.04-12.11,6.83-1.27.67-2.76.74-4.02.29-10.48-3.57-22.63-15.02-16.39-25.23,1.72-2.59,3.98-4.93,5.33-7.4,5.69-9.94,13.4-18.35,22.78-25.12,1.41-1.01,3.49-.07,3.69,1.64h0Z"/>
          <path class="cls-2" d="M263.83,254.14c1.31,7.56,2.63,15.03,3.69,22.26.24,2.42,2.38,4.88,2.31,7.37-.61,2.81-2.76,4.11-5.46,6.16-2.24,1.46-4.66,2.95-8.85,4.99-.93.49-2.01.54-2.94.21-7.65-2.61-16.54-10.98-11.98-18.43,1.25-1.89,2.91-3.6,3.89-5.41,4.16-7.26,9.79-13.41,16.64-18.36,1.03-.74,2.55-.05,2.69,1.2h0Z"/>
        </g>
        <g>
          <path class="cls-2" d="M730.39,344.65c-1.79,10.35-3.6,20.57-5.04,30.47-.33,3.32-3.26,6.68-3.16,10.09.83,3.85,3.78,5.63,7.47,8.44,3.06,2,6.37,4.04,12.11,6.83,1.27.67,2.76.74,4.02.29,10.48-3.57,22.63-15.02,16.39-25.23-1.72-2.59-3.98-4.93-5.33-7.4-5.69-9.94-13.4-18.35-22.78-25.12-1.41-1.01-3.49-.07-3.69,1.64h0Z"/>
          <path class="cls-2" d="M697.71,254.14c-1.31,7.56-2.63,15.03-3.69,22.26-.24,2.42-2.38,4.88-2.31,7.37.61,2.81,2.76,4.11,5.46,6.16,2.24,1.46,4.66,2.95,8.85,4.99.93.49,2.01.54,2.94.21,7.65-2.61,16.54-10.98,11.98-18.43-1.25-1.89-2.91-3.6-3.89-5.41-4.16-7.26-9.79-13.41-16.64-18.36-1.03-.74-2.55-.05-2.69,1.2h0Z"/>
        </g>
      </g>
      <g>
        <g>
          <path class="cls-4" d="M562.85,455.31c1.43-12.58,1.7-20.76,1.7-20.76,0,0,0-63.68-24.99-85.2,0,0-34.3-10.54-36.75-14.05l-17.64,21.96s-2.67,3.32-4.41,5.49c-1.74-2.17-4.41-5.49-4.41-5.49l-17.64-21.96c-2.45,3.51-36.75,14.05-36.75,14.05-24.99,21.52-24.99,85.2-24.99,85.2,0,0,.28,8.18,1.7,20.76h164.16Z"/>
          <path class="cls-1" d="M392.43,455.31h12.68c-.95-7.1-1.65-13.78-2.16-19.8-.12-1.03-.08-2.88-.09-3.93.56-22.47,2.46-45.96,12.03-66.49,2.29-4.84,5.24-9.26,8.9-12.88,11.46-4.18,23.1-7.99,33.85-13.84.34-.21.64-.4.92-.6,7.23,8.26,14.91,16.87,22.2,24.98-6.84-9.56-14.02-19.53-20.99-28.98l-2.49.53c-.08.02,0-.01-.15.08-.13.08-.2.15-.36.23-5.31,2.75-11.22,4.25-16.9,6.13-6.44,1.99-12.96,3.85-19.46,5.61-5.19,4.17-9.34,9.45-12.48,15.05-11.52,21.44-15.11,45.93-16.7,69.85-.07,1.43-.17,3.39-.1,4.84.27,6.1.69,12.55,1.3,19.23Z"/>
          <path class="cls-1" d="M537.73,352.22c3.65,3.61,6.6,8.05,8.9,12.88,7.32,15.31,9.81,32.48,11.26,49.38.5,6.99.96,14.07.68,21.04-.5,5.9-1.19,12.6-2.15,19.8h12.74c.66-7.51,1.08-14.82,1.28-21.79-1.42-26.85-7.05-68.52-28.7-86.69l-.6-.5-.59-.16c-6.3-1.71-12.62-3.52-18.87-5.44-5.85-1.96-12.04-3.42-17.41-6.44l-2.52-.51-.3.41c-6.87,9.31-13.93,19.14-20.67,28.56,7.3-8.11,15-16.73,22.23-24.99,10.84,6.38,22.99,10.09,34.73,14.46Z"/>
        </g>
        <g>
          <g>
            <path class="cls-2" d="M398.71,455.31c-1.8-35.24.3-80.33,18.3-107.98,0,0-35.38-2.46-63.31-20.49,0,0-5.58,6.4-12.21,17.74-19.93,34.07-25.6,73.24-16.88,110.73h74.11Z"/>
            <path class="cls-1" d="M332.65,455.31c-8.96-36.43-3.52-74.11,15.59-106.77,2.79-4.77,5.39-8.62,7.39-11.41,17.78,9.9,36.98,14.45,48.96,16.48-13.74,29.18-15.4,69.49-13.78,101.7h15.76c-1.8-34.17.06-77.7,16.99-103.71,1.51-2.32,1.68-5.27.45-7.76-1.23-2.48-3.69-4.13-6.46-4.33-.34-.02-33.79-2.58-59.61-19.25-3.27-2.11-7.59-1.5-10.15,1.43-.25.28-6.14,7.09-13.07,18.93-20.53,35.1-26.84,75.45-18.15,114.68h16.08Z"/>
          </g>
          <g>
            <path class="cls-2" d="M562.83,455.31h74.11c8.72-37.48,3.05-76.65-16.88-110.73-6.64-11.34-12.21-17.74-12.21-17.74-27.93,18.03-63.31,20.49-63.31,20.49,18,27.65,20.1,72.74,18.3,107.98Z"/>
            <path class="cls-1" d="M554.97,455.31h15.76c1.61-32.21-.05-72.52-13.78-101.7,11.98-2.03,31.18-6.58,48.96-16.48,2.01,2.78,4.6,6.63,7.4,11.41,19.1,32.66,24.55,70.35,15.59,106.77h16.08c8.69-39.23,2.38-79.58-18.15-114.68-6.93-11.85-12.82-18.65-13.07-18.93-2.56-2.93-6.88-3.54-10.15-1.43-25.82,16.67-59.28,19.23-59.6,19.25-2.77.19-5.23,1.84-6.47,4.32-1.24,2.49-1.07,5.44.45,7.76,16.93,26.01,18.79,69.54,16.99,103.71Z"/>
          </g>
        </g>
        <g>
          <g>
            <circle class="cls-4" cx="418.85" cy="290.9" r="75.33"/>
            <path class="cls-1" d="M418.85,374.06c-45.85,0-83.16-37.31-83.16-83.16s37.31-83.16,83.16-83.16,83.16,37.31,83.16,83.16-37.31,83.16-83.16,83.16ZM418.85,223.4c-37.22,0-67.5,30.28-67.5,67.5s30.28,67.5,67.5,67.5,67.5-30.28,67.5-67.5-30.28-67.5-67.5-67.5Z"/>
          </g>
          <g>
            <circle class="cls-4" cx="542.69" cy="290.9" r="75.33"/>
            <path class="cls-1" d="M542.69,374.06c-45.85,0-83.16-37.31-83.16-83.16s37.31-83.16,83.16-83.16,83.16,37.31,83.16,83.16-37.31,83.16-83.16,83.16ZM542.69,223.4c-37.22,0-67.5,30.28-67.5,67.5s30.28,67.5,67.5,67.5,67.5-30.28,67.5-67.5-30.28-67.5-67.5-67.5Z"/>
          </g>
        </g>
        <g>
          <g>
            <circle class="cls-4" cx="418.85" cy="290.9" r="40.42"/>
            <path class="cls-1" d="M418.85,339.15c-26.61,0-48.25-21.64-48.25-48.25s21.65-48.25,48.25-48.25,48.25,21.64,48.25,48.25-21.65,48.25-48.25,48.25ZM418.85,258.31c-17.97,0-32.59,14.62-32.59,32.59s14.62,32.59,32.59,32.59,32.59-14.62,32.59-32.59-14.62-32.59-32.59-32.59Z"/>
          </g>
          <g>
            <circle class="cls-4" cx="542.69" cy="290.35" r="40.42"/>
            <path class="cls-1" d="M542.69,338.6c-26.61,0-48.25-21.64-48.25-48.25s21.65-48.25,48.25-48.25,48.25,21.64,48.25,48.25-21.65,48.25-48.25,48.25ZM542.69,257.76c-17.97,0-32.59,14.62-32.59,32.59s14.62,32.59,32.59,32.59,32.59-14.62,32.59-32.59-14.62-32.59-32.59-32.59Z"/>
          </g>
        </g>
        <g>
          <path class="cls-2" d="M480.77,286.48l3.13,2.64s15.12,12.74,18.33,42.14c0,0,2.75,12.25-14.67,35.77,0,0-4.43,6.84-6.8,10.49-2.37-3.66-6.79-10.49-6.79-10.49-17.42-23.52-14.67-35.77-14.67-35.77,3.21-29.4,18.33-42.14,18.33-42.14,0,0,1.56-1.32,3.13-2.64Z"/>
          <path class="cls-1" d="M480.77,385.34h0c-2.66,0-5.13-1.35-6.57-3.58l-6.66-10.29c-17.39-23.57-16.61-37.65-15.97-41.38,3.58-31.94,20.32-46.37,21.04-46.97l3.13-2.64c2.92-2.46,7.18-2.45,10.09,0l3.13,2.64c.71.6,17.46,15.04,21.04,46.97.64,3.73,1.42,17.81-15.98,41.38l-6.66,10.29c-1.44,2.23-3.92,3.57-6.57,3.57ZM467,332.81c-.09,1.39-.16,11.42,13.27,29.55.1.13.19.27.28.4l.22.34.22-.34c.09-.14.18-.27.28-.4,13.43-18.13,13.35-28.17,13.27-29.55-.09-.31-.05-.26-.09-.7-2.15-19.67-9.97-30.75-13.68-35.01-3.68,4.22-11.52,15.31-13.67,35.01-.05.45,0,.4-.09.7ZM494.59,332.97h0ZM466.95,332.97h0ZM459.31,331.25h.01-.01Z"/>
        </g>
        <g>
          <path class="cls-2" d="M480.77,238.02c-1.32-1.4-2.64-2.79-2.64-2.79-12.86-13.6-112.44-38.95-112.44-38.95-81.94-16.9-24.21,20.58-24.21,20.58,0,0,10.29,7.35,78.64,41.16l58.75,28.66s.95.46,1.9.93c.95-.46,1.9-.93,1.9-.93l58.75-28.66c68.35-33.81,78.64-41.16,78.64-41.16,0,0,57.74-37.48-24.21-20.58,0,0-99.58,25.35-112.44,38.95,0,0-1.32,1.4-2.64,2.79Z"/>
          <path class="cls-1" d="M480.77,296.32l-64.09-31.27c-64.44-31.88-77.67-40.39-79.58-41.7-.87-.57-6.33-4.19-11.54-8.66-4.04-3.46-14.75-12.66-10.84-22.2,4.06-9.89,18.3-10.94,52.54-3.88l.35.08c.25.06,25.37,6.47,51.74,14.47,42.22,12.8,56.08,20.06,61.41,23.98,5.33-3.92,19.2-11.18,61.41-23.98,26.37-8,51.49-14.41,51.74-14.47l.35-.08c34.24-7.07,48.48-6.01,52.54,3.88,3.92,9.54-6.8,18.74-10.84,22.2-5.21,4.47-10.66,8.09-11.54,8.66-1.9,1.31-15.12,9.82-79.54,41.68l-64.12,31.29ZM332.42,199.72c3.15,3.15,8.28,7.28,13.33,10.57l.28.19c.39.27,11.88,8.02,77.56,40.51l57.18,27.9,57.22-27.92c65.64-32.47,77.12-40.22,77.58-40.53l.23-.15c5.05-3.28,10.18-7.41,13.32-10.57-4.8-.08-14.07.6-31.51,4.19-47.83,12.19-101.45,29.23-108.51,36.7l-8.33,8.81-8.33-8.81c-7.06-7.47-60.68-24.51-108.51-36.7-17.44-3.59-26.71-4.28-31.51-4.19Z"/>
        </g>
        <g>
          <circle class="cls-1" cx="422.71" cy="282.02" r="23.52"/>
          <circle class="cls-1" cx="538.83" cy="282.02" r="23.52"/>
        </g>
        <g>
          <circle class="cls-4" cx="536.26" cy="276.49" r="7.74"/>
          <circle class="cls-4" cx="425.28" cy="276.49" r="7.74"/>
        </g>
        <g>
          <path class="cls-1" d="M523.3,389.04c-2.26,6.97-5.53,13.48-9.76,19.46-1.65,2.18-2.71,5.11-4.88,6.95-4.4,3.28-10.1,3.91-15.46,1.58-.54-.25-.82-.84-.7-1.4.46-2.82,1.09-4.71,1.76-6.53,1.36-3.21,2.78-6.05,6.02-7.43,1.52-.63,3.13-1.27,4.52-2.15l8.46-5.55c2.91-1.87,5.77-3.88,8.77-5.85.61-.46,1.52.2,1.27.92h0Z"/>
          <path class="cls-1" d="M439.51,388.12c5.09,3.42,12.07,8.04,17.24,11.4,2.67,1.74,6.34,2.19,8.14,5.06,2.3,3.37,3.34,6.5,4.17,11.11.09.57-.22,1.11-.71,1.34-2.53,1.16-4.93,1.46-7.09,1.35-3.18-.2-5.99-1.03-8.37-2.93-2.17-1.84-3.23-4.77-4.88-6.95-4.24-5.97-7.5-12.49-9.76-19.46-.25-.72.66-1.38,1.27-.92h0Z"/>
        </g>
        <g>
          <g>
            <path class="cls-1" d="M505.91,436.27c-1,4.38-2.84,8.41-5.53,11.95-1.29,1.7-2.04,4.65-4.66,4.79-3.28.23-6-.99-8.68-3.8-.38-.42-.55-.95-.51-1.48.13-2.47.36-3.97.61-5.36.44-1.74.63-3.07,1.88-3.95,1.2-.55,2.85-.01,4.08-.4,1.73-.47,3.58-.92,5.54-1.37,1.99-.44,4-1,6.17-1.45.63-.15,1.23.45,1.09,1.08h0Z"/>
            <path class="cls-1" d="M537.37,438.04c-1.73,4.14-4.24,7.8-7.49,10.83-1.56,1.45-2.8,4.24-5.41,3.93-3.27-.33-5.75-2-7.9-5.23-.31-.48-.38-1.03-.24-1.55.55-2.42,1.03-3.85,1.52-5.18.73-1.64,1.15-2.92,2.53-3.57,1.28-.34,2.81.47,4.09.31,1.79-.16,3.69-.29,5.7-.4,2.03-.09,4.11-.3,6.33-.38.65-.04,1.14.66.89,1.25h0Z"/>
          </g>
          <g>
            <path class="cls-1" d="M457.42,435.2c3.97.93,7.9,1.83,11.66,2.81,1.23.38,2.88-.15,4.08.4,1.25.88,1.44,2.2,1.88,3.95.25,1.4.48,2.89.61,5.36.05.56-.15,1.1-.5,1.48-2.67,2.82-5.41,4.04-8.68,3.8-2.63-.14-3.37-3.09-4.66-4.79-2.69-3.54-4.53-7.57-5.53-11.95-.15-.65.5-1.26,1.14-1.07h0Z"/>
            <path class="cls-1" d="M425.76,436.79c4.07.24,8.09.45,11.97.78.9.08,1.92-.19,2.85-.36.91-.14,1.63.04,2.21.76,1.72,2.34,2.18,4.54,3.09,8.1.12.53.01,1.06-.26,1.48-1.3,2.04-2.7,3.19-4.03,3.99-2.33,1.29-5.07,2.03-6.96-.02-2.14-2.71-4.74-4.73-6.62-7.64-1.22-1.85-2.36-3.7-3.2-5.85-.26-.62.28-1.32.94-1.25h0Z"/>
          </g>
        </g>
        <path class="cls-1" d="M361.32,370.92c.69,4.02,1.4,7.99,1.96,11.83.13,1.29,1.27,2.59,1.23,3.92-.32,1.49-1.47,2.19-2.9,3.27-1.19.78-2.47,1.57-4.7,2.65-.49.26-1.07.29-1.56.11-4.07-1.38-8.79-5.83-6.36-9.79.67-1.01,1.54-1.92,2.07-2.87,2.21-3.86,5.2-7.13,8.84-9.75.55-.39,1.35-.03,1.43.64h0Z"/>
        <path class="cls-1" d="M371.5,401.52c2.01,3.55,4,7.05,5.82,10.48.56,1.17,2.06,2.02,2.47,3.27.2,1.51-.65,2.55-1.63,4.06-.86,1.13-1.8,2.31-3.54,4.08-.38.41-.91.63-1.43.63-3.88-.06-6.63-1.24-8.68-3.81-1.67-2.03,0-4.58.37-6.68.78-4.38,2.5-8.46,5.04-12.16.38-.55,1.27-.48,1.56.12h0Z"/>
        <path class="cls-1" d="M350.51,423.68c2.49,3.23,4.96,6.41,7.25,9.55.71,1.08,2.33,1.7,2.91,2.89.41,1.47-.28,2.62-1.04,4.25-.69,1.24-1.46,2.54-2.92,4.54-.32.46-.81.75-1.33.83-3.85.49-6.74-.29-9.13-2.54-1.94-1.77-.66-4.53-.58-6.66.16-4.44,1.28-8.73,3.27-12.75.3-.6,1.19-.66,1.56-.1h0Z"/>
        <g>
          <path class="cls-1" d="M601.65,370.28c3.64,2.63,6.63,5.9,8.84,9.75,1.06,1.85,3.49,3.69,2.59,6.16-1.07,3.11-3.25,5.14-6.89,6.51-.51.18-1.05.14-1.5-.08-2.21-1.07-3.59-1.91-4.77-2.68-1.43-1.09-2.58-1.78-2.9-3.27-.04-1.32,1.1-2.63,1.23-3.92.25-1.78.55-3.66.9-5.64.37-2,.64-4.07,1.07-6.25.11-.64.9-.96,1.42-.58h0Z"/>
          <path class="cls-1" d="M591.6,401.4c2.54,3.7,4.26,7.78,5.05,12.16.37,2.1,2.04,4.65.37,6.68-2.05,2.57-4.79,3.75-8.68,3.81-.54,0-1.03-.22-1.38-.58-1.72-1.75-2.73-3-3.59-4.13-.98-1.51-1.83-2.55-1.63-4.06.41-1.26,1.92-2.11,2.47-3.27.83-1.59,1.75-3.26,2.75-5.01,1.03-1.76,1.97-3.61,3.11-5.52.32-.56,1.17-.6,1.53-.07h0Z"/>
          <path class="cls-1" d="M612.59,423.78c1.99,4.02,3.11,8.31,3.27,12.75.07,2.13,1.36,4.89-.58,6.66-2.39,2.25-5.28,3.03-9.13,2.54-.54-.08-.99-.37-1.29-.77-1.46-1.98-2.28-3.36-2.96-4.6-.76-1.63-1.45-2.78-1.04-4.25.58-1.19,2.2-1.81,2.91-2.89,1.05-1.46,2.19-2.98,3.43-4.57,1.26-1.6,2.46-3.3,3.86-5.03.39-.51,1.24-.43,1.53.15h0Z"/>
        </g>
      </g>
    </g>
    <g>
      <path class="cls-3" d="M133,491.16c15.01,0,26.95,3.03,35.82,9.1,8.87,6.07,13.31,15.11,13.31,27.11,0,8.88-2.19,16.28-6.56,22.22-4.37,5.94-10.31,10.38-17.81,13.31-7.51,2.94-16.09,4.4-25.74,4.4l-4.5-15.27c11.87,0,22.41,1.63,31.62,4.89,9.2,3.26,16.47,7.93,21.83,14,5.35,6.07,8.03,13.35,8.03,21.83,0,7.83-1.4,14.46-4.21,19.87-2.81,5.42-6.59,9.79-11.35,13.12-4.77,3.33-10.15,5.75-16.15,7.24-6,1.5-12.2,2.25-18.6,2.25h-47.96v-144.08h42.28ZM136.33,550.08c5.61,0,9.75-1.7,12.43-5.09,2.67-3.39,4.01-7.24,4.01-11.55,0-4.96-1.66-8.68-4.99-11.16-3.33-2.48-7.8-3.72-13.41-3.72h-15.27v31.52h17.23ZM137.31,608.81c4.18,0,7.96-.55,11.35-1.66,3.39-1.11,6.07-2.87,8.03-5.29,1.96-2.41,2.94-5.45,2.94-9.1,0-4.18-1.17-7.34-3.52-9.49-2.35-2.15-5.38-3.65-9.1-4.5-3.72-.85-7.6-1.27-11.65-1.27h-16.25v31.32h18.21Z"/>
      <path class="cls-3" d="M194.27,635.24l64.99-149.76h1.57l64.99,149.76h-32.89l-41.5-105.32,20.56-14.09-49.72,119.42h-27.99ZM238.71,583.16h43.26l9.98,23.88h-62.06l8.81-23.88Z"/>
      <path class="cls-3" d="M455.81,620.75c-1.7,1.83-4.37,3.69-8.03,5.58-3.66,1.89-7.86,3.62-12.63,5.19-4.77,1.57-9.63,2.84-14.58,3.82-4.96.98-9.66,1.47-14.09,1.47-11.75,0-22.32-1.73-31.71-5.19-9.4-3.46-17.42-8.29-24.08-14.49-6.66-6.2-11.75-13.54-15.27-22.02-3.52-8.48-5.29-17.75-5.29-27.8,0-13.18,1.99-24.63,5.97-34.36,3.98-9.72,9.4-17.81,16.25-24.27,6.85-6.46,14.75-11.26,23.69-14.39,8.94-3.13,18.3-4.7,28.09-4.7,9.26,0,17.75,1.01,25.45,3.03,7.7,2.03,14.22,4.54,19.58,7.54l-9.2,26.43c-2.35-1.3-5.48-2.61-9.4-3.92-3.92-1.3-7.9-2.38-11.94-3.23-4.05-.85-7.63-1.27-10.77-1.27-7.83,0-14.75.98-20.75,2.94-6,1.96-11.06,4.89-15.17,8.81s-7.21,8.78-9.3,14.58c-2.09,5.81-3.13,12.56-3.13,20.26,0,6.79,1.17,12.89,3.52,18.3,2.35,5.42,5.64,10.02,9.89,13.8,4.24,3.79,9.26,6.66,15.07,8.61,5.81,1.96,12.24,2.94,19.28,2.94,4.04,0,7.76-.29,11.16-.88,3.39-.59,6.26-1.53,8.61-2.84v-17.42h-24.86v-27.41h53.64v60.88Z"/>
      <path class="cls-3" d="M477.34,563.39c0-9.92,1.89-19.31,5.68-28.19,3.78-8.87,9.04-16.74,15.76-23.59,6.72-6.85,14.52-12.24,23.39-16.15,8.87-3.92,18.4-5.87,28.58-5.87s19.51,1.96,28.39,5.87c8.87,3.92,16.74,9.3,23.59,16.15,6.85,6.85,12.2,14.72,16.05,23.59,3.85,8.88,5.77,18.27,5.77,28.19s-1.93,19.71-5.77,28.58c-3.85,8.88-9.2,16.67-16.05,23.39-6.85,6.72-14.72,11.98-23.59,15.76-8.88,3.79-18.34,5.68-28.39,5.68s-19.71-1.89-28.58-5.68c-8.88-3.78-16.67-9.03-23.39-15.76-6.72-6.72-11.98-14.52-15.76-23.39-3.79-8.87-5.68-18.4-5.68-28.58ZM506.71,563.39c0,6.4,1.14,12.37,3.43,17.91,2.28,5.55,5.48,10.44,9.59,14.68,4.11,4.24,8.87,7.54,14.29,9.89,5.41,2.35,11.32,3.52,17.72,3.52s11.84-1.18,17.13-3.52,9.89-5.64,13.8-9.89c3.92-4.24,6.98-9.13,9.2-14.68,2.22-5.55,3.33-11.52,3.33-17.91s-1.14-12.59-3.43-18.21c-2.28-5.61-5.42-10.54-9.4-14.78-3.98-4.24-8.65-7.54-14-9.89-5.35-2.35-11.16-3.52-17.42-3.52s-12.07,1.17-17.42,3.52c-5.35,2.35-10.05,5.65-14.09,9.89-4.05,4.24-7.18,9.17-9.4,14.78-2.22,5.61-3.33,11.68-3.33,18.21Z"/>
      <path class="cls-3" d="M650.98,491.16h28.39v116.67h67.73v27.41h-96.12v-144.08Z"/>
      <path class="cls-3" d="M788.41,590.41l-53.05-99.25h35.04l37.19,74.78-8.42.59,36.61-75.37h35.04l-54.03,99.25v44.83h-28.39v-44.83Z"/>
    </g>
    <g>
      <g>
        <path class="cls-3" d="M408.24,687.08v67.6h-16.32v-67.6h16.32ZM402.16,687.08h13.23c5.73,0,10.54.89,14.44,2.66,3.89,1.77,6.84,4.3,8.84,7.58,1.99,3.28,2.99,7.24,2.99,11.88s-1,8.42-2.99,11.73c-2,3.32-4.94,5.86-8.84,7.63-3.9,1.77-8.71,2.66-14.44,2.66h-13.23v-13.42h13.23c3.28,0,5.86-.74,7.73-2.22,1.87-1.48,2.8-3.6,2.8-6.37s-.93-4.99-2.8-6.47c-1.87-1.48-4.44-2.22-7.73-2.22h-13.23v-13.43Z"/>
        <path class="cls-3" d="M467.93,687.08v44.23c0,3.41.9,6.18,2.7,8.3,1.8,2.13,4.51,3.19,8.11,3.19s6.41-1.06,8.21-3.19c1.8-2.12,2.7-4.89,2.7-8.3v-44.23h16.32v45.39c0,4.25-.69,7.95-2.08,11.11-1.39,3.16-3.32,5.75-5.79,7.77-2.48,2.03-5.38,3.56-8.69,4.59-3.32,1.03-6.87,1.55-10.67,1.55s-7.34-.52-10.62-1.55c-3.28-1.03-6.17-2.56-8.64-4.59-2.48-2.03-4.41-4.62-5.79-7.77-1.39-3.16-2.08-6.86-2.08-11.11v-45.39h16.32Z"/>
        <path class="cls-3" d="M531.95,713.93h10.91c1.87,0,3.46-.29,4.78-.87,1.32-.58,2.33-1.4,3.04-2.46.71-1.06,1.06-2.37,1.06-3.91,0-2.32-.77-4.06-2.32-5.22-1.55-1.16-3.74-1.74-6.57-1.74h-6.76v42.3h8.31c2.13,0,4.02-.27,5.7-.82,1.67-.55,3.01-1.45,4.01-2.7,1-1.26,1.5-2.98,1.5-5.17,0-1.42-.29-2.64-.87-3.67-.58-1.03-1.38-1.87-2.41-2.51-1.03-.64-2.21-1.11-3.53-1.4-1.32-.29-2.79-.43-4.39-.43h-12.46v-8.89h14.29c3.28,0,6.47.35,9.56,1.06,3.09.71,5.89,1.85,8.4,3.43,2.51,1.58,4.52,3.57,6.04,5.99,1.51,2.41,2.27,5.33,2.27,8.74,0,4.51-1.08,8.14-3.24,10.91-2.16,2.77-5.2,4.82-9.13,6.13-3.93,1.32-8.56,1.98-13.91,1.98h-26.46v-67.6h24.82c4.7,0,8.84.63,12.41,1.88,3.57,1.26,6.41,3.16,8.5,5.7,2.09,2.54,3.14,5.75,3.14,9.61,0,3.54-1.05,6.57-3.14,9.08-2.09,2.51-4.92,4.43-8.5,5.75-3.57,1.32-7.71,1.98-12.41,1.98h-12.65v-7.15Z"/>
      </g>
      <g>
        <path class="cls-2" d="M645.52,709.14c-2.79,6.68-6.83,12.58-12.08,17.46-2.52,2.34-4.52,6.83-8.73,6.33-5.27-.54-9.27-3.22-12.74-8.44-.49-.77-.61-1.67-.39-2.5.88-3.9,1.66-6.21,2.44-8.36,1.19-2.65,1.85-4.7,4.08-5.75,2.07-.54,4.53.76,6.6.49,2.88-.26,5.95-.47,9.19-.65,3.28-.14,6.62-.48,10.2-.61,1.04-.06,1.83,1.06,1.43,2.02h0Z"/>
        <path class="cls-2" d="M317.54,707.13c6.56.38,13.06.73,19.3,1.26,1.44.12,3.1-.31,4.6-.58,1.47-.22,2.63.06,3.57,1.23,2.77,3.77,3.52,7.33,4.98,13.07.19.85.02,1.71-.42,2.39-2.1,3.28-4.35,5.14-6.5,6.44-3.76,2.08-8.18,3.27-11.22-.03-3.46-4.38-7.65-7.63-10.67-12.32-1.97-2.99-3.8-5.96-5.17-9.44-.42-1,.46-2.14,1.52-2.01h0Z"/>
      </g>
    </g>
  </g>
</svg>